<svg width="30" height="23" viewBox="0 0 30 23" fill="none" xmlns="http://www.w3.org/2000/svg">
<path d="M2.15315 0.457031C1.42115 0.457031 0.827148 1.57403 0.827148 2.95703C0.827148 4.34003 1.42115 5.45703 2.15315 5.45703H28.6741C29.4061 5.45703 30.0001 4.34003 30.0001 2.95703C30.0001 1.57403 29.4061 0.457031 28.6741 0.457031H2.15315ZM2.15315 9.17603C1.42115 9.17603 0.827148 10.293 0.827148 11.676C0.827148 13.059 1.42115 14.176 2.15315 14.176H28.6741C29.4061 14.176 30.0001 13.059 30.0001 11.676C30.0001 10.293 29.4061 9.17603 28.6741 9.17603H2.15315ZM2.15315 17.895C1.42115 17.895 0.827148 19.012 0.827148 20.395C0.827148 21.778 1.42115 22.895 2.15315 22.895H28.6741C29.4061 22.895 30.0001 21.778 30.0001 20.395C30.0001 19.012 29.4061 17.895 28.6741 17.895H2.15315Z" fill="#010002"/>
</svg>
