<svg width="100" height="35" viewBox="0 0 100 35" fill="none" xmlns="http://www.w3.org/2000/svg">
<path fill-rule="evenodd" clip-rule="evenodd" d="M18.8666 7.68375C17.9829 7.30061 17.0429 7.06108 16.0828 6.97431C15.7368 5.70261 15.8953 4.34748 16.5258 3.18855C16.8263 3.14633 17.1146 3.0419 17.372 2.88208C17.6294 2.72225 17.8502 2.51056 18.0201 2.26067C18.6339 1.4611 18.7299 0.514115 18.2336 0.146142C17.7373 -0.221831 16.8385 0.129165 16.2248 0.928734C15.9677 1.18562 15.797 1.51534 15.7362 1.87253C15.6754 2.22972 15.7275 2.59687 15.8854 2.92344C15.188 4.146 14.8705 5.54626 14.9728 6.9478C14.0458 6.96379 13.1318 7.16616 12.2856 7.5427C11.4396 7.91924 10.6791 8.46214 10.05 9.13867C9.16938 8.93566 8.35055 8.52594 7.66211 7.94383C6.97369 7.36171 6.4357 6.62418 6.09323 5.79298C6.26038 5.54277 6.37188 5.26002 6.42028 4.96359C6.46869 4.66717 6.45289 4.36388 6.37395 4.07401C6.16795 3.09204 5.5083 2.39638 4.90096 2.51939C4.29362 2.64241 3.96595 3.53848 4.17195 4.51938C4.35768 5.40803 4.91912 6.06235 5.47202 6.08674C6.1474 7.918 7.5142 9.41587 9.28255 10.2627C9.23559 10.3539 9.19076 10.4462 9.14913 10.5395C7.85974 13.4292 9.26974 16.9021 12.3235 18.8343C12.1923 18.9276 12.0691 19.0315 11.9553 19.145C10.5452 18.4717 8.97818 18.1896 7.41997 18.3284C7.14525 18.3309 6.87088 18.3085 6.60023 18.2616C5.25427 17.9551 4.57221 18.1768 4.23492 18.5278C4.11981 18.6731 4.04734 18.8471 4.02549 19.0306C4.00364 19.2142 4.03327 19.4002 4.11111 19.5681C4.25627 19.8767 4.78996 19.8332 4.78996 19.8332L4.8476 19.8226L4.87962 19.813C5.13179 19.8239 5.37865 19.8885 5.6033 20.0029C5.71747 20.0783 5.84825 20.1253 5.98456 20.1399C6.12087 20.1545 6.25873 20.1363 6.38646 20.0867C6.51418 20.0372 6.62803 19.9579 6.71837 19.8555C6.80872 19.753 6.87291 19.6304 6.90549 19.4981C7.64787 19.31 8.42459 19.2996 9.17181 19.4678C9.91906 19.6358 10.6154 19.9777 11.2039 20.4652C11.1691 20.6011 11.1444 20.7393 11.1302 20.8788C9.50854 20.5955 7.83948 20.9462 6.47214 21.8576C3.89122 23.4811 2.79397 26.3252 4.01718 28.2107C4.44773 28.8523 5.08905 29.3257 5.83172 29.55C5.78583 33.8734 1.57716 31.0728 1.57716 31.0728C0.646406 30.3655 0.242927 31.3814 0.0828253 32.1163C-0.264072 33.462 0.590903 33.6953 0.590903 33.6953C1.23667 33.8299 1.22172 33.0187 1.22172 33.0187C1.22813 32.9455 1.23026 32.901 1.23026 32.901C1.22756 32.7188 1.27918 32.5398 1.37863 32.3867C1.4996 32.3013 1.64277 32.2524 1.791 32.2459C1.93922 32.2393 2.08622 32.2753 2.21438 32.3496L2.37129 32.4471C6.27255 34.8066 7.08269 31.3432 7.25027 29.7727C8.46456 29.7704 9.65543 29.4406 10.6958 28.8183C13.9566 30.0452 10.5805 33.0548 10.5805 33.0548C9.66039 33.7759 10.5688 34.4015 11.2562 34.7324C12.5039 35.3824 12.9373 34.6263 12.9373 34.6263C13.2233 34.042 12.4185 33.8639 12.4185 33.8639L12.3043 33.8278C12.1244 33.7876 11.96 33.6962 11.8315 33.5648C11.7753 33.4294 11.7608 33.2805 11.7897 33.1369C11.8186 32.9934 11.8895 32.8614 11.9937 32.7578L12.1271 32.6316C14.5896 30.2372 13.3418 28.7409 11.9339 27.9243C12.5084 27.4466 12.9768 26.8554 13.3094 26.1885C13.642 25.5215 13.8314 24.7931 13.8659 24.0495C14.2851 24.0739 14.7047 24.0088 15.0966 23.8586C15.3579 24.3366 15.7065 24.7619 16.1245 25.1131C16.454 25.3923 16.8378 25.6012 17.252 25.727C17.6662 25.8528 18.102 25.8926 18.5324 25.8441C18.9627 25.7956 19.3785 25.6597 19.7538 25.4449C20.129 25.2302 20.456 24.9411 20.7142 24.5956C22.5405 23.4026 21.0248 22.2881 20.7067 22.2372C20.6304 22.2137 20.5482 22.2179 20.4748 22.2492C20.4014 22.2805 20.3417 22.3368 20.3064 22.4079C20.1997 22.6815 19.7909 22.7324 19.7909 22.7324C19.6447 22.771 19.5078 22.839 19.3891 22.9322C19.2703 23.0253 19.172 23.1417 19.1003 23.2741C19.0286 23.4064 18.9849 23.552 18.9721 23.7018C18.9592 23.8516 18.9775 24.0024 19.0256 24.1449C18.9046 24.3035 18.7491 24.4328 18.5708 24.5234C18.3925 24.614 18.1959 24.6633 17.9957 24.6677C17.7954 24.6723 17.5968 24.6318 17.4146 24.5493C17.2323 24.4669 17.0711 24.3446 16.9431 24.1916L16.9165 24.1693C16.5977 23.8657 16.3691 23.4809 16.2558 23.0569C16.5524 22.7199 16.765 22.3181 16.8762 21.8843C16.9874 21.4504 16.9943 20.9966 16.8962 20.5596C19.9286 21.1715 22.8735 20.7717 23.9355 18.3846C25.3946 15.11 22.7753 9.36879 18.8666 7.68375Z" fill="url(#paint0_linear)"/>
<path fill-rule="evenodd" clip-rule="evenodd" d="M64.4906 8.30066H49.6986C49.4679 8.30066 49.2466 8.3924 49.0834 8.55567C48.9203 8.71895 48.8286 8.94039 48.8286 9.1713V12.0122C48.8286 12.2431 48.9203 12.4646 49.0834 12.6278C49.2466 12.7911 49.4679 12.8828 49.6986 12.8828H54.6735V31.1627C54.6735 31.8923 55.1948 32.3292 56.0776 32.3292H58.3647C59.2475 32.3292 59.7691 31.8976 59.7691 31.1627V12.886H64.4894C64.6036 12.886 64.7168 12.8635 64.8224 12.8197C64.9279 12.7759 65.024 12.7119 65.1047 12.631C65.1855 12.5502 65.2496 12.4542 65.2934 12.3486C65.337 12.2429 65.3595 12.1297 65.3595 12.0154V9.1713C65.3595 8.94058 65.268 8.71927 65.105 8.55603C64.9421 8.39279 64.7211 8.30094 64.4906 8.30066ZM46.8042 9.39715C46.6834 8.60076 46.2024 8.30173 45.4001 8.30173H40.1825C39.3802 8.30173 38.8578 8.60076 38.7381 9.39715L34.7647 30.9326C34.6047 31.729 35.0826 32.326 36.0895 32.326H38.2568C38.5789 32.3725 38.9064 32.2909 39.1689 32.0985C39.4314 31.9063 39.6081 31.6186 39.6611 31.2974L40.1063 28.3568C40.1144 28.347 40.1208 28.3359 40.1253 28.3239C40.1559 28.2366 40.2091 28.159 40.2795 28.099C40.3498 28.0391 40.4349 27.9988 40.526 27.9824C44.1294 28.1606 46.0062 31.694 46.0062 31.694L46.0221 31.6802C46.1478 31.8987 46.3339 32.0763 46.558 32.1914C46.7821 32.3065 47.0347 32.3544 47.2855 32.3292H49.4538C50.4574 32.3292 50.9375 31.765 50.7785 30.9358L46.8042 9.39715ZM43.8771 24.3197C43.8359 24.3196 43.7948 24.3227 43.7541 24.3292H41.7553C41.715 24.3227 41.6743 24.3196 41.6335 24.3197C40.9075 24.3197 40.8088 23.9167 40.8088 23.6993L41.5508 19.22L42.1242 14.8075C42.152 14.6473 42.2341 14.5017 42.3566 14.3949C42.4792 14.2881 42.6347 14.2267 42.7971 14.2211C43.4075 14.2211 43.4331 14.9178 43.4331 14.9178L43.9926 19.2211L44.7037 23.7502C44.6931 23.9718 44.5595 24.3197 43.8802 24.3197H43.8771ZM84.574 8.30703H80.641C79.7582 8.30703 79.3162 8.67181 79.1965 9.40245L77.5114 16.5371L77.0462 19.4003L77.0228 19.3929C77.0228 19.3929 77.0397 20.2052 76.4431 20.2052C76.2861 20.1947 76.137 20.1326 76.0187 20.0287C75.9006 19.9248 75.8198 19.7848 75.7892 19.6304L75.2593 16.5382L73.6144 9.40353C73.5946 9.23518 73.5412 9.07254 73.4572 8.92528C73.3734 8.77801 73.2608 8.6491 73.1262 8.54622C72.9915 8.44335 72.8376 8.36861 72.6735 8.32642C72.5095 8.28423 72.3385 8.27548 72.171 8.30066H68.238C67.3551 8.30066 66.8338 8.69938 66.8338 9.42897V31.168C66.8338 31.8976 67.3551 32.3345 68.238 32.3345H69.9231C70.8059 32.3345 71.3274 31.9029 71.3274 31.168V19.7152L71.2786 19.079C71.2755 19.023 71.2835 18.967 71.3021 18.9141C71.3208 18.8613 71.3497 18.8126 71.3872 18.7709C71.4247 18.7293 71.4702 18.6956 71.5209 18.6717C71.5715 18.6477 71.6264 18.634 71.6824 18.6315C71.8753 18.6315 72.0003 18.8033 72.0788 18.9941L73.6558 26.8838C73.6558 26.8997 73.6642 26.9156 73.6685 26.9305L74.2355 29.8318C74.2355 29.8318 74.3638 31.3854 76.3806 31.3981H76.4061C78.4081 31.3854 78.5352 29.8318 78.5352 29.8318L79.0757 27.0461C79.0926 26.993 79.1053 26.9387 79.1138 26.8838L80.6146 19.5V19.4809L80.6782 19.1712C80.7471 18.9241 80.8826 18.6293 81.1349 18.6293C81.2389 18.6299 81.3386 18.6709 81.4128 18.7438C81.4871 18.8166 81.5299 18.9156 81.5323 19.0196L81.4784 19.7152V31.168C81.4784 31.8976 81.9998 32.3345 82.8837 32.3345H84.5687C85.4515 32.3345 85.973 31.9029 85.973 31.168V9.42897C85.9761 8.70044 85.4145 8.30066 84.572 8.30066L84.574 8.30703Z" fill="#121213"/>
<path fill-rule="evenodd" clip-rule="evenodd" d="M87.3798 30.8684C87.2385 30.8697 87.1006 30.9126 86.9836 30.9919C86.8666 31.0713 86.7757 31.1834 86.7221 31.3142C86.6686 31.4451 86.6549 31.5889 86.6827 31.7275C86.7105 31.8662 86.7786 31.9934 86.8785 32.0935C86.9783 32.1936 87.1054 32.2619 87.2439 32.2899C87.3824 32.3179 87.5261 32.3043 87.657 32.251C87.7879 32.1977 87.9001 32.1068 87.9795 31.9898C88.059 31.8729 88.1021 31.7351 88.1036 31.5936C88.1098 31.4969 88.0954 31.4 88.0611 31.3092C88.027 31.2185 87.9739 31.1361 87.9054 31.0674C87.837 30.9987 87.7546 30.9455 87.664 30.9112C87.5734 30.8769 87.4765 30.8623 87.3798 30.8684ZM90.4532 27.4559C89.5545 27.4559 89.0638 27.8059 89.0638 28.5736V31.1758C89.0638 31.9521 89.5545 32.3021 90.4532 32.3021C91.352 32.3021 91.8426 31.9595 91.8426 31.1843V30.6256C91.8472 30.5795 91.8417 30.5331 91.8261 30.4895C91.8106 30.446 91.7856 30.4065 91.7529 30.3738C91.7202 30.3412 91.6808 30.3161 91.6373 30.3006C91.5938 30.2851 91.5474 30.2794 91.5014 30.284H91.0849C91.0389 30.2794 90.9926 30.2851 90.949 30.3006C90.9055 30.3161 90.866 30.3412 90.8334 30.3738C90.8007 30.4065 90.7756 30.446 90.7602 30.4895C90.7446 30.5331 90.739 30.5795 90.7436 30.6256V31.1558C90.7436 31.3679 90.6441 31.4739 90.4523 31.4739C90.2604 31.4739 90.1607 31.3742 90.1607 31.1558V28.6106C90.1607 28.3985 90.2604 28.2926 90.4523 28.2926C90.6441 28.2926 90.7436 28.3922 90.7436 28.6106V29.1408C90.7385 29.187 90.7439 29.2336 90.7593 29.2774C90.7747 29.3211 90.7997 29.3609 90.8324 29.3938C90.8652 29.4266 90.9048 29.4518 90.9485 29.4672C90.9921 29.4827 91.0388 29.4882 91.0849 29.4834H91.5014C91.5475 29.488 91.5939 29.4824 91.6376 29.4668C91.6811 29.4512 91.7208 29.4262 91.7534 29.3933C91.7862 29.3606 91.8111 29.3209 91.8265 29.2772C91.842 29.2335 91.8474 29.187 91.8426 29.1408V28.5821C91.8394 27.8059 91.3488 27.4559 90.4448 27.4559H90.4532ZM93.691 27.4559C92.7922 27.4559 92.3016 27.8059 92.3016 28.5736V31.1843C92.3016 31.9521 92.7922 32.3021 93.691 32.3021C94.5897 32.3021 95.0804 31.9521 95.0804 31.1843V28.5736C95.0772 27.8059 94.5865 27.4559 93.6878 27.4559H93.691ZM93.9824 31.1514C93.9824 31.3635 93.8828 31.4697 93.691 31.4697C93.4991 31.4697 93.3994 31.3699 93.3994 31.1514V28.6065C93.3994 28.3944 93.5002 28.2884 93.691 28.2884C93.8817 28.2884 93.9824 28.388 93.9824 28.6065V31.1514ZM99.2168 27.4559C98.8423 27.4608 98.4821 27.6 98.2015 27.8482C98.1389 27.7266 98.0432 27.6253 97.9254 27.5558C97.8076 27.4863 97.6726 27.4517 97.536 27.4559C97.1989 27.4663 96.8781 27.6034 96.6373 27.8397V27.8313C96.6411 27.7858 96.6349 27.74 96.619 27.6973C96.6031 27.6544 96.5779 27.6157 96.5453 27.5838C96.5126 27.5519 96.4735 27.5275 96.4304 27.5125C96.3873 27.4976 96.3414 27.4924 96.296 27.4973H95.8806C95.8352 27.4924 95.7894 27.4976 95.7463 27.5125C95.7031 27.5275 95.6638 27.5519 95.6313 27.5838C95.5986 27.6157 95.5735 27.6544 95.5576 27.6973C95.5417 27.74 95.5354 27.7858 95.5393 27.8313V31.9277C95.5354 31.9732 95.5417 32.019 95.5576 32.0617C95.5735 32.1046 95.5986 32.1433 95.6313 32.1752C95.6638 32.2071 95.7031 32.2315 95.7463 32.2464C95.7894 32.2614 95.8352 32.2666 95.8806 32.2617H96.296C96.3414 32.2666 96.3873 32.2614 96.4304 32.2464C96.4735 32.2315 96.5126 32.2071 96.5453 32.1752C96.5779 32.1433 96.6031 32.1046 96.619 32.0617C96.6349 32.019 96.6411 31.9732 96.6373 31.9277V28.6912C96.6373 28.4791 96.7284 28.3731 96.9287 28.3731C97.129 28.3731 97.2202 28.4728 97.2202 28.6912V31.9277C97.2164 31.9732 97.2225 32.019 97.2384 32.0617C97.2543 32.1046 97.2794 32.1433 97.3121 32.1752C97.3447 32.2071 97.384 32.2315 97.427 32.2464C97.4702 32.2614 97.516 32.2666 97.5613 32.2617H97.9769C98.0222 32.2666 98.0681 32.2614 98.1112 32.2464C98.1543 32.2315 98.1936 32.2071 98.2263 32.1752C98.2588 32.1433 98.2839 32.1046 98.2998 32.0617C98.3157 32.019 98.3221 31.9732 98.3181 31.9277V28.6912C98.3181 28.4791 98.4092 28.3731 98.6095 28.3731C98.8098 28.3731 98.901 28.4728 98.901 28.6912V31.9277C98.8971 31.9732 98.9035 32.019 98.9194 32.0617C98.9353 32.1046 98.9604 32.1433 98.993 32.1752C99.0256 32.2071 99.0649 32.2315 99.108 32.2464C99.1512 32.2614 99.1969 32.2666 99.2423 32.2617H99.6578C99.7031 32.2666 99.749 32.2614 99.7921 32.2464C99.8353 32.2315 99.8744 32.2071 99.907 32.1752C99.9397 32.1433 99.9649 32.1046 99.9808 32.0617C99.9967 32.019 100.003 31.9732 99.999 31.9277V28.388C99.9958 27.7316 99.6376 27.4559 99.2137 27.4559H99.2168Z" fill="#121213"/>
<path d="M90.612 11.3338C90.2882 11.3338 89.9892 11.2545 89.715 11.0959C89.4441 10.934 89.2277 10.7176 89.0658 10.4466C88.9072 10.1724 88.8279 9.87342 88.8279 9.54963C88.8279 9.22584 88.9072 8.92849 89.0658 8.65757C89.2277 8.38334 89.4441 8.16693 89.715 8.00834C89.9892 7.84645 90.2882 7.7655 90.612 7.7655C90.9358 7.7655 91.2331 7.84645 91.5041 8.00834C91.7783 8.16693 91.9947 8.38334 92.1533 8.65757C92.3152 8.92849 92.3961 9.22584 92.3961 9.54963C92.3961 9.87342 92.3152 10.1724 92.1533 10.4466C91.9947 10.7176 91.7783 10.934 91.5041 11.0959C91.2331 11.2545 90.9358 11.3338 90.612 11.3338ZM90.612 10.9274C90.8598 10.9274 91.0861 10.8662 91.291 10.744C91.4991 10.6185 91.6627 10.45 91.7816 10.2385C91.9038 10.027 91.965 9.79743 91.965 9.54963C91.965 9.30183 91.9038 9.07221 91.7816 8.86076C91.6627 8.64931 91.4991 8.48246 91.291 8.36021C91.0861 8.23466 90.8598 8.17189 90.612 8.17189C90.3642 8.17189 90.1362 8.23466 89.9281 8.36021C89.7232 8.48246 89.5597 8.64931 89.4375 8.86076C89.3185 9.07221 89.259 9.30183 89.259 9.54963C89.259 9.79743 89.3185 10.027 89.4375 10.2385C89.5597 10.45 89.7232 10.6185 89.9281 10.744C90.1362 10.8662 90.3642 10.9274 90.612 10.9274ZM89.9925 10.4516C89.9595 10.4516 89.933 10.4417 89.9132 10.4219C89.8934 10.402 89.8835 10.3756 89.8835 10.3426V8.74677C89.8835 8.71373 89.8934 8.6873 89.9132 8.66748C89.933 8.64765 89.9595 8.63774 89.9925 8.63774H90.6863C90.8978 8.63774 91.0762 8.6873 91.2216 8.78642C91.367 8.88223 91.4396 9.03422 91.4396 9.24236C91.4396 9.36791 91.4116 9.47364 91.3554 9.55954C91.2992 9.64544 91.2265 9.70987 91.1373 9.75282L91.4 10.2732C91.4132 10.2996 91.4198 10.3228 91.4198 10.3426C91.4198 10.3723 91.4099 10.3987 91.3901 10.4219C91.3736 10.4417 91.3471 10.4516 91.3108 10.4516H91.0035C90.9374 10.4516 90.8895 10.4202 90.8598 10.3574L90.6318 9.85194H90.4187V10.3426C90.4187 10.3756 90.4088 10.402 90.389 10.4219C90.3692 10.4417 90.3427 10.4516 90.3097 10.4516H89.9925ZM90.6814 9.43069C90.7541 9.43069 90.8069 9.41417 90.84 9.38113C90.8763 9.34479 90.8945 9.29853 90.8945 9.24236C90.8945 9.1862 90.8763 9.14159 90.84 9.10855C90.8069 9.07221 90.7541 9.05404 90.6814 9.05404H90.4187V9.43069H90.6814Z" fill="#121213"/>
<defs>
<linearGradient id="paint0_linear" x1="-0.632962" y1="34.9961" x2="35.383" y2="13.2289" gradientUnits="userSpaceOnUse">
<stop stop-color="#5B6CFA"/>
<stop offset="1" stop-color="#07AEFF"/>
</linearGradient>
</defs>
</svg>
